<svg width="1600" height="960" viewBox="0 0 1600 960" fill="none" xmlns="http://www.w3.org/2000/svg">
  <rect width="1600" height="960" fill="#E9EEF5"/>
  <rect y="640" width="1600" height="320" fill="#D9E2EC"/>
  <rect x="170" y="278" width="1260" height="422" rx="22" fill="#F7F4EF" stroke="#CBD5E1" stroke-width="10"/>
  <rect x="245" y="352" width="1110" height="280" rx="14" fill="#FFFDFC" stroke="#D7DEE8" stroke-width="6"/>
  <rect x="610" y="210" width="380" height="110" rx="18" fill="#F7F4EF" stroke="#CBD5E1" stroke-width="8"/>
  <rect x="660" y="160" width="280" height="72" rx="16" fill="#F7F4EF" stroke="#CBD5E1" stroke-width="8"/>
  <path d="M800 54L846 132H754L800 54Z" fill="#1A227F"/>
  <rect x="792" y="96" width="16" height="74" rx="8" fill="#1A227F"/>
  <rect x="746" y="122" width="36" height="22" rx="8" fill="#2444B0"/>
  <rect x="782" y="122" width="36" height="22" rx="8" fill="#F8F6F6"/>
  <rect x="818" y="122" width="36" height="22" rx="8" fill="#D23B3B"/>
  <rect x="278" y="372" width="84" height="198" rx="16" fill="#E6EDF6"/>
  <rect x="394" y="372" width="84" height="198" rx="16" fill="#E6EDF6"/>
  <rect x="510" y="372" width="84" height="198" rx="16" fill="#E6EDF6"/>
  <rect x="626" y="372" width="84" height="198" rx="16" fill="#E6EDF6"/>
  <rect x="742" y="372" width="116" height="280" rx="18" fill="#FDFBF8" stroke="#CBD5E1" stroke-width="6"/>
  <rect x="890" y="372" width="84" height="198" rx="16" fill="#E6EDF6"/>
  <rect x="1006" y="372" width="84" height="198" rx="16" fill="#E6EDF6"/>
  <rect x="1122" y="372" width="84" height="198" rx="16" fill="#E6EDF6"/>
  <rect x="1238" y="372" width="84" height="198" rx="16" fill="#E6EDF6"/>
  <rect x="706" y="654" width="188" height="46" rx="14" fill="#C7D2E0"/>
  <rect x="740" y="432" width="120" height="220" rx="18" fill="#1A227F" fill-opacity="0.06"/>
  <rect x="742" y="430" width="116" height="6" rx="3" fill="#1A227F"/>
  <circle cx="798" cy="550" r="14" fill="#1A227F" fill-opacity="0.22"/>
  <rect x="100" y="708" width="190" height="120" rx="32" fill="#1A227F" fill-opacity="0.08"/>
  <rect x="1310" y="714" width="190" height="120" rx="32" fill="#1A227F" fill-opacity="0.08"/>
  <path d="M0 724C152 678 282 662 390 676C514 692 617 744 800 744C983 744 1086 692 1210 676C1318 662 1448 678 1600 724V960H0V724Z" fill="#C4D0DE"/>
</svg>
