<svg xmlns="http://www.w3.org/2000/svg" width="1200" height="630" viewBox="0 0 1200 630" role="img" aria-labelledby="title desc">
  <title>Présidentielles 2027</title>
  <desc>Carte de partage du site Présidentielles 2027</desc>
  <defs>
    <linearGradient id="bg" x1="0" y1="0" x2="1" y2="1">
      <stop offset="0%" stop-color="#eef2ff"/>
      <stop offset="50%" stop-color="#f8fafc"/>
      <stop offset="100%" stop-color="#fff7ed"/>
    </linearGradient>
    <linearGradient id="ink" x1="0" y1="0" x2="1" y2="1">
      <stop offset="0%" stop-color="#1a227f"/>
      <stop offset="100%" stop-color="#2563eb"/>
    </linearGradient>
    <linearGradient id="accent" x1="0" y1="0" x2="1" y2="1">
      <stop offset="0%" stop-color="#f59e0b"/>
      <stop offset="100%" stop-color="#f97316"/>
    </linearGradient>
  </defs>
  <rect width="1200" height="630" fill="url(#bg)"/>
  <circle cx="1040" cy="116" r="92" fill="#2563eb" opacity="0.08"/>
  <circle cx="962" cy="512" r="140" fill="#f59e0b" opacity="0.12"/>
  <circle cx="190" cy="96" r="110" fill="#1a227f" opacity="0.08"/>
  <rect x="88" y="78" width="1024" height="474" rx="42" fill="#ffffff" opacity="0.88"/>
  <rect x="136" y="132" width="220" height="220" rx="54" fill="url(#ink)"/>
  <rect x="174" y="172" width="14" height="142" rx="7" fill="#ffffff"/>
  <rect x="188" y="172" width="14" height="142" rx="7" fill="#2563eb"/>
  <rect x="202" y="172" width="14" height="142" rx="7" fill="url(#accent)"/>
  <path d="M238 174h58c34 0 62 28 62 62s-28 62-62 62h-27v62h-31V174Zm31 96h25c19 0 34-15 34-34s-15-33-34-33h-25v67Z" fill="#ffffff"/>
  <text x="404" y="208" fill="#475569" font-family="Public Sans, Arial, sans-serif" font-size="30" font-weight="700" letter-spacing="4">EXPLORE</text>
  <text x="404" y="292" fill="#0f172a" font-family="Public Sans, Arial, sans-serif" font-size="84" font-weight="800">Présidentielles 2027</text>
  <text x="404" y="356" fill="#334155" font-family="Public Sans, Arial, sans-serif" font-size="34" font-weight="600">Candidats, sondages et intentions de vote</text>
  <text x="404" y="432" fill="#475569" font-family="Public Sans, Arial, sans-serif" font-size="26">Profils, vidéos, tweets, interventions et dynamiques de campagne.</text>
  <g transform="translate(404 474)">
    <rect width="208" height="54" rx="27" fill="#e0e7ff"/>
    <text x="104" y="35" text-anchor="middle" fill="#1a227f" font-family="Public Sans, Arial, sans-serif" font-size="22" font-weight="800">electionpresidentielle2027.com</text>
  </g>
</svg>
