<svg xmlns="http://www.w3.org/2000/svg" viewBox="0 0 512 512" role="img" aria-labelledby="title desc">
  <title>Présidentielles 2027</title>
  <desc>Logo du site Présidentielles 2027</desc>
  <defs>
    <linearGradient id="bg" x1="0" y1="0" x2="1" y2="1">
      <stop offset="0%" stop-color="#1a227f"/>
      <stop offset="100%" stop-color="#2563eb"/>
    </linearGradient>
    <linearGradient id="accent" x1="0" y1="0" x2="1" y2="1">
      <stop offset="0%" stop-color="#f59e0b"/>
      <stop offset="100%" stop-color="#f97316"/>
    </linearGradient>
  </defs>
  <rect width="512" height="512" rx="116" fill="url(#bg)"/>
  <circle cx="386" cy="126" r="56" fill="rgba(255,255,255,0.12)"/>
  <path d="M100 388c44-128 115-198 213-210 9-1 17 6 17 15v95h48c9 0 16 7 16 16v32c0 8-7 15-15 15H228c-11 0-19-9-18-19l4-85c-43 18-77 61-101 141H100Z" fill="#ffffff"/>
  <rect x="132" y="106" width="18" height="264" rx="9" fill="#ffffff" opacity="0.94"/>
  <rect x="150" y="106" width="18" height="264" rx="9" fill="#2563eb" opacity="0.96"/>
  <rect x="168" y="106" width="18" height="264" rx="9" fill="url(#accent)" opacity="0.98"/>
  <path d="M252 106h72c32 0 58 26 58 58s-26 58-58 58h-35v148h-37V106Zm37 79h33c12 0 22-10 22-22s-10-22-22-22h-33v44Z" fill="#ffffff"/>
</svg>
